<?xml version="1.0" encoding="UTF-8" standalone="no"?>
<!-- Created with Inkscape (http://www.inkscape.org/) -->

<svg
   xmlns:dc="http://purl.org/dc/elements/1.1/"
   xmlns:cc="http://creativecommons.org/ns#"
   xmlns:rdf="http://www.w3.org/1999/02/22-rdf-syntax-ns#"
   xmlns:svg="http://www.w3.org/2000/svg"
   xmlns="http://www.w3.org/2000/svg"
   xmlns:sodipodi="http://sodipodi.sourceforge.net/DTD/sodipodi-0.dtd"
   xmlns:inkscape="http://www.inkscape.org/namespaces/inkscape"
   width="96mm"
   height="96mm"
   viewBox="0 0 340.15748 340.15748"
   id="svg2"
   version="1.1"
   inkscape:version="0.91 r13725"
   sodipodi:docname="YAP.svg">
  <defs
     id="defs4" />
  <sodipodi:namedview
     id="base"
     pagecolor="#ffffff"
     bordercolor="#666666"
     borderopacity="1.0"
     inkscape:pageopacity="0.0"
     inkscape:pageshadow="2"
     inkscape:zoom="1.4"
     inkscape:cx="148.0719"
     inkscape:cy="247.31999"
     inkscape:document-units="px"
     inkscape:current-layer="layer1"
     showgrid="false"
     borderlayer="true"
     inkscape:showpageshadow="false"
     inkscape:window-width="1920"
     inkscape:window-height="1024"
     inkscape:window-x="0"
     inkscape:window-y="0"
     inkscape:window-maximized="1" />
  <metadata
     id="metadata7">
    <rdf:RDF>
      <cc:Work
         rdf:about="">
        <dc:format>image/svg+xml</dc:format>
        <dc:type
           rdf:resource="http://purl.org/dc/dcmitype/StillImage" />
        <dc:title></dc:title>
      </cc:Work>
    </rdf:RDF>
  </metadata>
  <g
     inkscape:label="Calque 1"
     inkscape:groupmode="layer"
     id="layer1"
     transform="translate(0,-712.20472)">
    <g
       id="g4344"
       transform="translate(2.8846358e-8,36.939728)">
      <text
         sodipodi:linespacing="125%"
         id="text4211"
         y="955.1037"
         x="39.18259"
         style="font-style:normal;font-weight:normal;font-size:30.05160332px;line-height:125%;font-family:Sans;letter-spacing:0px;word-spacing:0px;fill:#a02c2c;fill-opacity:1;stroke:none;stroke-width:1px;stroke-linecap:butt;stroke-linejoin:miter;stroke-opacity:1"
         xml:space="preserve"><tspan
           y="955.1037"
           x="39.18259"
           id="tspan4213"
           sodipodi:role="line">Yet Another Panel</tspan></text>
      <g
         transform="translate(-3.9034277,0)"
         id="g4314">
        <circle
           style="opacity:1;fill:#ffffff;fill-opacity:1;stroke:none;stroke-width:5;stroke-linecap:round;stroke-linejoin:round;stroke-miterlimit:4;stroke-dasharray:none;stroke-opacity:1"
           id="path4205"
           cx="55.8423"
           cy="839.12976"
           r="4.653821" />
        <g
           id="g4279"
           transform="translate(-0.30821334,0)"
           style="fill:#a02c2c">
          <path
             sodipodi:nodetypes="sssssssccsssccccccsssssscccsscccccssscccssssssscccsssccssccccscsssssssccssscccsscccssssssssssccccsssssssscccc"
             inkscape:connector-curvature="0"
             id="path4201"
             d="m 126.84563,735.15823 c -1.9855,0 -3.0048,0.6846 -8.88403,5.97556 -10.85429,9.7682 -11.14519,10.1905 -18.681911,27.05574 -2.23446,5.00015 -9.363026,21.8411 -10.285676,23.84408 -0.92266,2.00297 -1.8796,4.28042 -2.1272,5.06052 -0.38361,1.20866 -0.73291,1.36586 -2.36039,1.05945 -1.05043,-0.19776 -5.86524,-0.52703 -10.69872,-0.73155 -6.60295,-0.2794 -9.70298,-0.15658 -12.46842,0.49599 l -3.68027,0.86887 -1.41221,-3.68264 c -4.26614,-11.12481 -9.298935,-28.16034 -16.434805,-39.45653 -11.87773,-18.80267 -16.962226,-23.32751 -21.147659,-18.82278 -3.776988,4.06513 -4.768359,10.29732 -4.985948,23.3589 l -0.194134,11.64098 c 0.500054,1.82677 0.378331,4.33252 0.475867,6.36502 0.180623,3.16676 2.535092,20.96046 2.763699,25.96061 l 0.415495,9.09119 3.771422,5.19783 c 2.074262,2.85871 5.458904,8.68698 7.520353,12.95139 3.31246,6.85234 3.8091,8.36128 4.2757,12.98453 1.61779,16.02979 1.50863,15.4688 3.99633,20.4457 1.31561,2.63201 3.68513,9.28603 5.26649,14.7862 1.58136,5.50017 3.67731,12.09432 4.65687,14.65361 2.06346,5.39115 2.5274,5.75629 12.63532,9.94231 4.93943,2.04557 7.10995,2.63104 9.69727,2.61371 l 3.33343,-0.0225 -3.52824,-2.05127 c -7.55908,-2.23893 -16.4312,-6.1885 -18.17205,-8.11358 -1.11989,-1.23839 -3.8026,-8.59762 -7.36004,-20.96181 -1.24684,-4.33346 -3.01632,-10.09095 -4.32981,-12.66187 -3.68763,-9.08689 -1.95048,-13.4974 -4.62694,-23.70287 -1.27316,-4.59666 -7.650838,-17.74073 -11.360429,-22.82148 l -3.719337,-4.55252 c 0.831031,-42.68658 -9.161601,-102.41368 20.097691,-51.40207 5.1435,8.13486 9.981635,26.40448 13.820755,36.56699 1.75827,4.65433 3.79097,5.34526 5.84602,4.24543 2.59447,-1.38851 11.30955,-1.30351 18.11355,-0.53911 11.35157,1.27529 10.85263,0.94068 15.20675,-8.83634 9.566417,-21.59292 15.329127,-38.53696 31.042037,-51.61988 7.42594,-5.21032 7.26166,24.80339 7.31404,28.55978 -0.30048,9.99191 -6.28585,31.16566 -7.4178,36.37372 -0.9618,4.42524 -1.49366,6.68421 -7.93314,16.57907 -1.7355,2.66674 -3.6264,6.17983 -3.8049,7.01319 -1.48044,6.9115 -5.34461,21.47728 -5.89287,23.39256 -0.37391,1.30621 -2.14659,6.63509 -4.46899,11.97428 -2.498217,5.74341 -4.376457,11.58015 -4.911537,14.29258 -2.27079,11.51097 -3.52901,16.56692 -5.53605,18.71624 -1.7297,1.8523 -8.41728,5.46307 -12.89406,7.30406 l -3.06033,2.3029 2.33198,0.0142 c 2.86324,0.0177 10.6824,-3.90322 14.51868,-7.28005 2.96115,-2.60651 4.08783,-5.617 6.57098,-17.55498 0.93808,-4.50989 2.642887,-9.45373 5.850077,-16.97022 3.98591,-9.34152 4.86596,-12.13016 7.38541,-23.3802 l 2.86112,-12.77265 4.22361,-6.62188 c 6.54472,-10.26088 6.77735,-10.70771 7.73697,-14.84894 1.89256,-8.1672 7.31076,-27.50707 7.22333,-36.36576 0.0468,-4.80424 0.15462,-9.60747 0.0296,-14.39793 0.041,-4.88621 -0.7064,-9.04819 -3.07301,-17.12173 -1.10897,-3.39617 -1.33256,-4.39408 -3.52992,-4.39405 z m -71.002487,83.18891 c -5.29306,0.13732 -10.40836,3.57821 -13.28875,9.85944 -1.52673,3.32933 -1.75132,4.52824 -1.73775,9.27822 0.013,4.55349 0.27185,6.01202 1.56965,8.82839 2.40047,5.20931 6.00189,8.34462 11.11776,9.67833 4.47262,1.16601 10.25542,-0.80771 13.63087,-4.65214 3.15161,-3.58949 4.4374,-7.11595 4.72078,-12.94546 0.33478,-6.88681 -1.18771,-11.14359 -5.55769,-15.54025 -3.12889,-3.14799 -6.8333,-4.60048 -10.45487,-4.50653 z m 40.85956,13.02227 c -1.294,0.0284 -2.55295,0.5118 -3.53754,1.4964 -2.11875,2.11874 -2.37246,8.33061 -0.41985,10.28322 2.35544,2.35544 7.738207,1.06174 9.615747,-2.31028 1.51575,-2.72225 1.51608,-3.34089 0,-6.06313 -1.24812,-2.24108 -3.501677,-3.45371 -5.658357,-3.40621 z m 0.74714,3.36099 c 0.89303,0.01 1.77298,0.66065 2.20908,2.03468 0.915727,2.8852 -1.50998,5.81331 -3.69687,4.46123 -0.81094,-0.50138 -1.30702,-2.09223 -1.1024,-3.53325 0.27378,-1.92805 1.44198,-2.97491 2.59019,-2.96266 z m -28.0078,48.75485 c -2.84607,0.0478 -4.76198,0.26826 -5.69502,0.65698 -2.45417,1.02246 -4.48522,3.9318 -4.48522,6.42775 0,4.33144 4.92167,10.85615 8.18917,10.85615 0.91002,0 1.86365,0.58363 2.47404,1.5152 0.54603,0.83336 1.39932,1.5152 1.89636,1.5152 0.49704,0 1.43972,-0.68184 2.09524,-1.5152 0.75758,-0.96311 1.80248,-1.5152 2.86703,-1.5152 2.21462,0 7.05577,-3.80373 7.89087,-6.19929 0.71378,-2.04754 0.86355,-6.47594 0.27108,-8.01989 -0.20779,-0.54148 -1.50328,-1.56727 -2.87888,-2.2799 -2.06689,-1.07078 -3.71123,-1.31976 -9.47117,-1.43233 -1.15325,-0.0226 -2.20481,-0.0254 -3.1535,-0.009 z m 1.1364,1.76615 c 0.60843,0.002 1.27909,0.0101 2.02302,0.0213 6.21823,0.0938 7.18898,0.25676 8.93967,1.50336 1.77637,1.26489 1.96383,1.69502 1.96383,4.49943 0,2.93124 -0.16635,3.26104 -3.05998,6.05013 -2.12117,2.04454 -3.39484,2.84443 -4.14785,2.60543 -0.62024,-0.19685 -1.7536,0.18035 -2.64095,0.87834 -1.897,1.49217 -1.77287,1.49177 -3.04104,0.0107 -0.58288,-0.68074 -1.78791,-1.21216 -2.74867,-1.21216 -2.74788,0 -6.78643,-5.18257 -6.78643,-8.70883 0,-2.31209 0.56526,-3.28912 2.63621,-4.5598 1.42559,-0.87471 2.60316,-1.1044 6.86219,-1.08786 z"
             style="fill:#a02c2c" />
          <path
             d="m 124.69366,896.29376 19.32182,0 c -2.5756,-44.17581 22.95259,-37.4958 60.48853,-37.4958 l 16.11265,37.4958 12.19743,0 -47.8862,-111.28272 -12.4986,0 z m 57.09068,-87.26932 18.35269,39.68429 c -45.48139,2.64205 -36.05227,-3.29578 -18.35269,-39.68429 z"
             style="font-style:normal;font-variant:normal;font-weight:normal;font-stretch:normal;font-size:medium;line-height:125%;font-family:'URW Gothic L';-inkscape-font-specification:'URW Gothic L';letter-spacing:0px;word-spacing:0px;fill:#a02c2c;fill-opacity:1;stroke:none;stroke-width:1px;stroke-linecap:butt;stroke-linejoin:miter;stroke-opacity:1"
             id="path4216"
             inkscape:connector-curvature="0"
             sodipodi:nodetypes="ccccccccccc" />
          <path
             sodipodi:nodetypes="sccsscssccsscss"
             inkscape:connector-curvature="0"
             id="rect4220"
             d="m 292.63571,886.22632 c -0.50438,-6.68706 -7.32426,-14.83009 -17.06225,-24.20742 -0.51345,-8.86357 -0.0711,-18.64135 -1.01865,-27.06745 -0.67107,-9.19626 -0.74987,-18.16987 0.53381,-24.99587 2.1107,-11.22378 22.63291,-21.68916 15.16699,-30.72084 -5.02924,-6.08396 -18.49096,3.05634 -21.14171,3.15387 -4.53433,0.16697 -16.71383,-8.65004 -22.02322,-1.24881 -1.3609,1.89709 -1.89687,3.96609 -1.72875,6.19509 0.50437,6.68706 7.32426,14.83007 17.06226,24.20743 0.51344,8.86355 0.0711,18.64131 1.01863,27.06741 0.67124,9.19707 0.74997,18.16934 -0.53381,24.9959 -2.11069,11.22377 -22.6329,21.68916 -15.16698,30.72083 5.02925,6.08395 18.49094,-3.05632 21.1417,-3.15387 4.53435,-0.16698 16.7138,8.65003 22.02319,1.24882 1.36092,-1.8971 1.8969,-3.96608 1.72879,-6.19509 z"
             style="opacity:1;fill:none;fill-opacity:1;stroke:#a02c2c;stroke-width:3;stroke-linecap:round;stroke-linejoin:round;stroke-miterlimit:4;stroke-dasharray:none;stroke-opacity:1" />
          <path
             sodipodi:nodetypes="ccccccc"
             inkscape:connector-curvature="0"
             id="path4242"
             d="m 294.45985,778.32108 c 3.59157,3.3367 2.98646,3.71075 1.13642,7.00061 11.81701,0.68411 24.96799,12.10043 24.98251,23.93721 -0.004,11.84412 -25.28002,21.50391 -37.10434,22.18844 l -0.63135,6.95236 c 18.22281,-0.3519 44.43223,-8.39885 44.44656,-26.62505 -0.009,-18.23008 -14.60311,-33.1016 -32.8298,-33.45357 z"
             style="opacity:1;fill:#a02c2c;fill-opacity:1;stroke:none;stroke-width:5;stroke-linecap:round;stroke-linejoin:round;stroke-miterlimit:4;stroke-dasharray:none;stroke-opacity:1" />
        </g>
        <path
           style="opacity:1;fill:#a02c2c;fill-opacity:1;stroke:none;stroke-width:3;stroke-linecap:round;stroke-linejoin:round;stroke-miterlimit:4;stroke-dasharray:none;stroke-opacity:1"
           id="path4310"
           d="m 305.0637,833.32445 c 0.2566,0.12112 0.49694,0.25683 0.71719,0.43666 0.17075,0.15485 0.28247,0.35747 0.38344,0.56157 0.0817,0.18136 0.14823,0.36664 0.18837,0.56148 0.0444,0.17553 0.0772,0.3536 0.12353,0.52862 0.0367,0.18606 0.12867,0.35269 0.18946,0.531 0.0356,0.16512 0.0879,0.32593 0.12565,0.49052 0.0349,0.17108 0.04,0.34604 0.0439,0.52002 0.003,0.17863 0.002,0.35729 10e-4,0.53594 0.0122,0.18589 -0.0179,0.36761 -0.0475,0.55011 -0.0192,0.15949 -0.0492,0.31983 -0.10999,0.46907 -0.0566,0.15989 -0.14484,0.30453 -0.21476,0.45838 0,0 -1.92624,0.87562 -1.92624,0.87562 l 0,0 c 0.0744,-0.14776 0.14677,-0.29734 0.21191,-0.44803 0.018,-0.0395 0.0458,-0.0744 0.0621,-0.11464 0.0388,-0.0955 0.0616,-0.20692 0.0768,-0.30758 0.0241,-0.17445 0.0744,-0.34477 0.0611,-0.52217 3.1e-4,-0.17739 0.001,-0.35478 -9e-5,-0.53216 -0.002,-0.16115 -0.003,-0.32313 -0.0276,-0.48277 -0.0305,-0.15963 -0.0873,-0.31226 -0.111,-0.47334 -0.0559,-0.18434 -0.15726,-0.35067 -0.19507,-0.54043 -0.0486,-0.18038 -0.0829,-0.36298 -0.13194,-0.54333 -0.028,-0.17915 -0.0861,-0.34636 -0.15858,-0.51236 -0.0842,-0.17702 -0.17839,-0.35434 -0.32778,-0.48536 -0.21193,-0.1647 -0.44516,-0.28991 -0.69804,-0.38154 0,0 1.76359,-1.17528 1.76359,-1.17528 z"
           inkscape:connector-curvature="0" />
        <ellipse
           style="opacity:1;fill:#d4aa00;fill-opacity:1;stroke:none;stroke-width:3;stroke-linecap:round;stroke-linejoin:round;stroke-miterlimit:4;stroke-dasharray:none;stroke-opacity:1"
           id="path4308"
           cx="305.82367"
           cy="843.01678"
           rx="3.2829957"
           ry="5.3119988" />
        <path
           style="fill:none;fill-rule:evenodd;stroke:#a02c2c;stroke-width:3;stroke-linecap:butt;stroke-linejoin:miter;stroke-miterlimit:4;stroke-dasharray:none;stroke-opacity:1"
           d="m 45.961941,925.58805 c 54.043159,-17.67767 36.365491,-21.21321 56.063469,-18.18275 19.69797,3.03046 30.80965,23.73859 47.98224,19.69798 17.1726,-4.04062 46.46702,-26.76905 66.67007,-14.64722 20.20305,12.12183 22.72843,22.22336 40.91118,14.14214 18.18275,-8.08122 26.76904,-24.24366 39.90102,-19.69798 13.13199,4.54569 18.68783,19.69798 27.27412,1.51523 8.5863,-18.18274 10.10153,-35.35534 7.07107,-45.45686 -3.03046,-10.10153 -6.69226,-35.86042 -11.74302,-38.3858"
           id="path4312"
           inkscape:connector-curvature="0"
           sodipodi:nodetypes="csssssssc" />
      </g>
    </g>
  </g>
</svg>
